** Ali.Fear.Eats.the.Soul.1974.By.FASSBINDER.DVDRiP.XViD.ENG_SUB-Zen_Bud **

Format                           : AVI
File size                        : 701 MiB
Duration                         : 1h 29mn
Overall bit rate                 : 1 097 Kbps
Writing application              : AVI-Mux GUI 

Video

Format                           : MPEG-4 Visual
Codec ID                         : XVID
Duration                         : 1h 29mn
Bit rate                         : 960 Kbps
Width                            : 624 pixels
Height                           : 464 pixels
Display aspect ratio             : 4:3
Bits/(Pixel*Frame)               : 0.133
Stream size                      : 614 MiB (88%)
Writing library                  : XviD 1.2.1 (UTC 2008-12-04)

Audio

Format                           : MPEG Audio
Format profile                   : Layer 3
Codec ID/Hint                    : MP3
Duration                         : 1h 29mn
Bit rate                         : 128 Kbps
Channel(s)                       : 2 channels
Sampling rate                    : 48.0 KHz
Compression mode                 : Lossy
Stream size                      : 81.8 MiB (12%)
Writing library                  : LAME3.98r
Language                         : German

Text 

Format                           : .srt(UTF-8)
Language                         : English


